<?xml version="1.0" encoding="UTF-8"?>
<svg width="507px" height="89px" viewBox="0 0 507 89" version="1.1" xmlns="http://www.w3.org/2000/svg" xmlns:xlink="http://www.w3.org/1999/xlink">
    <!-- Generator: Sketch 43.1 (39012) - http://www.bohemiancoding.com/sketch -->
    <title>Group</title>
    <desc>Created with Sketch.</desc>
    <defs></defs>
    <g id="stllp" stroke="none" stroke-width="1" fill="none" fill-rule="evenodd">
        <g id="Desktop-HD" transform="translate(-237.000000, -64.000000)">
            <g id="Group" transform="translate(238.000000, 65.000000)">
                <g id="title" transform="translate(105.000000, 7.000000)">
                    <path d="M10.6572289,69.5975385 L14.3938443,69.5975385 C15.0978478,69.5975385 15.756713,69.5253341 16.3704597,69.3809231 C16.9842064,69.2365121 17.5167139,69.0153861 17.9679982,68.7175385 C18.4192825,68.4196908 18.7757917,68.0451305 19.0375366,67.5938462 C19.2992815,67.1425618 19.430152,66.6010288 19.430152,65.9692308 C19.430152,64.7056347 19.0240022,63.7669774 18.2116905,63.1532308 C17.3993787,62.5394841 16.208006,62.2326154 14.6375366,62.2326154 L10.6572289,62.2326154 L10.6572289,69.5975385 Z M10.6572289,60.608 L14.5833828,60.608 C15.0527185,60.608 15.5175343,60.5493339 15.9778443,60.432 C16.4381543,60.3146661 16.8533297,60.1206167 17.2233828,59.8498462 C17.5934359,59.5790756 17.8957919,59.2315919 18.1304597,58.8073846 C18.3651275,58.3831774 18.4824597,57.8642082 18.4824597,57.2504615 C18.4824597,57.0518964 18.4418447,56.7721044 18.3606136,56.4110769 C18.2793824,56.0500495 18.0988714,55.6890274 17.8190751,55.328 C17.5392788,54.9669726 17.1286163,54.6555911 16.5870751,54.3938462 C16.0455339,54.1321013 15.3144643,54.0012308 14.3938443,54.0012308 L10.6572289,54.0012308 L10.6572289,60.608 Z M8.70769048,52.2141538 L14.4209212,52.2141538 C15.2151816,52.2141538 15.9823534,52.2953838 16.7224597,52.4578462 C17.462566,52.6203085 18.1214312,52.891075 18.6990751,53.2701538 C19.276719,53.6492327 19.7370221,54.145638 20.0799982,54.7593846 C20.4229742,55.3731313 20.5944597,56.1312775 20.5944597,57.0338462 C20.5944597,58.0808257 20.3011293,58.978868 19.7144597,59.728 C19.1277901,60.477132 18.2929267,60.97805 17.2098443,61.2307692 L17.2098443,61.2849231 C18.5636972,61.3932313 19.6241995,61.8670727 20.3913828,62.7064615 C21.1585661,63.5458504 21.542152,64.6695314 21.542152,66.0775385 C21.542152,66.3844118 21.4654348,66.8356893 21.3119982,67.4313846 C21.1585615,68.0270799 20.8381545,68.6182535 20.3507674,69.2049231 C19.8633803,69.7915927 19.1593874,70.3015363 18.2387674,70.7347692 C17.3181474,71.1680022 16.0906725,71.3846154 14.5563059,71.3846154 L8.70769048,71.3846154 L8.70769048,52.2141538 Z M30.2781522,64.5612308 L38.5907676,64.5612308 L34.4479983,54.4886154 L30.2781522,64.5612308 Z M27.4350752,71.3846154 L25.1606137,71.3846154 L33.500306,52.2141538 L35.3956906,52.2141538 L43.7353829,71.3846154 L41.4609214,71.3846154 L39.3489214,66.3483077 L29.5470752,66.3483077 L27.4350752,71.3846154 Z M50.2781523,60.6892308 L53.7439985,60.6892308 C54.6104643,60.6892308 55.3460467,60.5989753 55.9507677,60.4184615 C56.5554887,60.2379478 57.0383556,59.9987707 57.3993831,59.7009231 C57.7604105,59.4030754 58.0221515,59.051079 58.1846139,58.6449231 C58.3470762,58.2387672 58.4283062,57.801028 58.4283062,57.3316923 C58.4283062,56.880408 58.3470762,56.4516943 58.1846139,56.0455385 C58.0221515,55.6393826 57.7604105,55.2828733 57.3993831,54.976 C57.0383556,54.6691267 56.5554887,54.4299496 55.9507677,54.2584615 C55.3460467,54.0869735 54.6104643,54.0012308 53.7439985,54.0012308 L50.2781523,54.0012308 L50.2781523,60.6892308 Z M50.2781523,71.3846154 L48.3286139,71.3846154 L48.3286139,52.2141538 L54.2313831,52.2141538 C56.1809313,52.2141538 57.7197877,52.6383547 58.8479985,53.4867692 C59.9762092,54.3351837 60.5403062,55.6168119 60.5403062,57.3316923 C60.5403062,58.6674939 60.1206181,59.7911749 59.2812292,60.7027692 C58.4418404,61.6143635 57.2279039,62.1423583 55.6393831,62.2867692 L61.1630754,71.3846154 L58.7803062,71.3846154 L53.5273831,62.4763077 L50.2781523,62.4763077 L50.2781523,71.3846154 Z M68.328614,60.6892308 L71.7944602,60.6892308 C72.660926,60.6892308 73.3965084,60.5989753 74.0012294,60.4184615 C74.6059504,60.2379478 75.0888173,59.9987707 75.4498448,59.7009231 C75.8108722,59.4030754 76.0726132,59.051079 76.2350755,58.6449231 C76.3975379,58.2387672 76.4787679,57.801028 76.4787679,57.3316923 C76.4787679,56.880408 76.3975379,56.4516943 76.2350755,56.0455385 C76.0726132,55.6393826 75.8108722,55.2828733 75.4498448,54.976 C75.0888173,54.6691267 74.6059504,54.4299496 74.0012294,54.2584615 C73.3965084,54.0869735 72.660926,54.0012308 71.7944602,54.0012308 L68.328614,54.0012308 L68.328614,60.6892308 Z M68.328614,71.3846154 L66.3790755,71.3846154 L66.3790755,52.2141538 L72.2818448,52.2141538 C74.231393,52.2141538 75.7702494,52.6383547 76.8984602,53.4867692 C78.0266709,54.3351837 78.5907679,55.6168119 78.5907679,57.3316923 C78.5907679,58.6674939 78.1710797,59.7911749 77.3316909,60.7027692 C76.4923021,61.6143635 75.2783655,62.1423583 73.6898448,62.2867692 L79.2135371,71.3846154 L76.8307679,71.3846154 L71.5778448,62.4763077 L68.328614,62.4763077 L68.328614,71.3846154 Z M86.3790757,71.3846154 L84.4295372,71.3846154 L84.4295372,52.2141538 L86.3790757,52.2141538 L86.3790757,71.3846154 Z M102.64246,55.3821538 C101.794046,54.1366092 100.557546,53.5138462 98.932922,53.5138462 C98.4274836,53.5138462 97.9310783,53.5815378 97.4436912,53.7169231 C96.9563042,53.8523084 96.518565,54.059896 96.1304605,54.3396923 C95.742356,54.6194886 95.4309745,54.9805106 95.1963066,55.4227692 C94.9616388,55.8650279 94.8443066,56.383997 94.8443066,56.9796923 C94.8443066,57.8461582 95.0879965,58.5185617 95.5753835,58.9969231 C96.0627706,59.4752844 96.6674825,59.8678959 97.3895374,60.1747692 C98.1115923,60.4816426 98.901328,60.7569219 99.7587682,61.0006154 C100.616208,61.2443089 101.405944,61.5692287 102.127999,61.9753846 C102.850054,62.3815405 103.454766,62.9185608 103.942153,63.5864615 C104.42954,64.2543623 104.67323,65.1659429 104.67323,66.3212308 C104.67323,67.1876966 104.488206,67.9684068 104.118153,68.6633846 C103.7481,69.3583624 103.26072,69.9405105 102.655999,70.4098462 C102.051278,70.8791818 101.374362,71.2402039 100.62523,71.4929231 C99.8760978,71.7456423 99.1224643,71.872 98.3643066,71.872 C97.1909674,71.872 96.0763119,71.650874 95.0203066,71.2086154 C93.9643013,70.7663568 93.066259,70.0397999 92.3261528,69.0289231 L94.0861528,67.7563077 C94.5013343,68.4603112 95.0789696,69.0244081 95.8190759,69.4486154 C96.5591821,69.8728226 97.4346605,70.0849231 98.4455374,70.0849231 C98.9329244,70.0849231 99.4203042,70.0082059 99.9076912,69.8547692 C100.395078,69.7013326 100.832818,69.4756938 101.220922,69.1778462 C101.609027,68.8799985 101.929434,68.5144637 102.182153,68.0812308 C102.434872,67.6479978 102.56123,67.1515925 102.56123,66.592 C102.56123,65.9240992 102.421334,65.3690279 102.141537,64.9267692 C101.861741,64.4845106 101.491694,64.114463 101.031384,63.8166154 C100.571074,63.5187677 100.047592,63.2705651 99.460922,63.072 C98.8742524,62.8734349 98.2695405,62.6748728 97.6467682,62.4763077 C97.0239958,62.2777426 96.4192839,62.0521038 95.8326143,61.7993846 C95.2459447,61.5466654 94.7224628,61.2262584 94.2621528,60.8381538 C93.8018428,60.4500493 93.4317952,59.9626696 93.1519989,59.376 C92.8722027,58.7893304 92.7323066,58.053748 92.7323066,57.1692308 C92.7323066,56.2486108 92.9083049,55.4453368 93.2603066,54.7593846 C93.6123084,54.0734325 94.081637,53.5048228 94.6683066,53.0535385 C95.2549762,52.6022542 95.9183542,52.2683088 96.6584605,52.0516923 C97.3985667,51.8350758 98.156713,51.7267692 98.932922,51.7267692 C100.016004,51.7267692 100.999789,51.8982547 101.884307,52.2412308 C102.768824,52.5842068 103.590149,53.1889187 104.348307,54.0553846 L102.64246,55.3821538 Z M116.766768,71.3846154 L114.81723,71.3846154 L114.81723,54.0012308 L108.399999,54.0012308 L108.399999,52.2141538 L123.183999,52.2141538 L123.183999,54.0012308 L116.766768,54.0012308 L116.766768,71.3846154 Z M130.105845,69.5975385 L140.367999,69.5975385 L140.367999,71.3846154 L128.156307,71.3846154 L128.156307,52.2141538 L140.043076,52.2141538 L140.043076,54.0012308 L130.105845,54.0012308 L130.105845,60.5267692 L139.39323,60.5267692 L139.39323,62.3138462 L130.105845,62.3138462 L130.105845,69.5975385 Z M148.156307,60.6892308 L151.622153,60.6892308 C152.488619,60.6892308 153.224201,60.5989753 153.828922,60.4184615 C154.433643,60.2379478 154.91651,59.9987707 155.277538,59.7009231 C155.638565,59.4030754 155.900306,59.051079 156.062769,58.6449231 C156.225231,58.2387672 156.306461,57.801028 156.306461,57.3316923 C156.306461,56.880408 156.225231,56.4516943 156.062769,56.0455385 C155.900306,55.6393826 155.638565,55.2828733 155.277538,54.976 C154.91651,54.6691267 154.433643,54.4299496 153.828922,54.2584615 C153.224201,54.0869735 152.488619,54.0012308 151.622153,54.0012308 L148.156307,54.0012308 L148.156307,60.6892308 Z M148.156307,71.3846154 L146.206769,71.3846154 L146.206769,52.2141538 L152.109538,52.2141538 C154.059086,52.2141538 155.597942,52.6383547 156.726153,53.4867692 C157.854364,54.3351837 158.418461,55.6168119 158.418461,57.3316923 C158.418461,58.6674939 157.998773,59.7911749 157.159384,60.7027692 C156.319995,61.6143635 155.106059,62.1423583 153.517538,62.2867692 L159.04123,71.3846154 L156.658461,71.3846154 L151.405538,62.4763077 L148.156307,62.4763077 L148.156307,71.3846154 Z M187.577846,61.9618462 C186.946048,62.3228736 186.409028,62.6613318 185.966769,62.9772308 C185.52451,63.2931298 185.168001,63.6270752 184.897231,63.9790769 C184.62646,64.3310787 184.427898,64.705639 184.301538,65.1027692 C184.175179,65.4998994 184.112,65.9421514 184.112,66.4295385 C184.112,66.9710796 184.220306,67.4674849 184.436923,67.9187692 C184.653539,68.3700535 184.942357,68.7536394 185.303384,69.0695385 C185.664412,69.3854375 186.079587,69.6336401 186.548923,69.8141538 C187.018259,69.9946676 187.514664,70.0849231 188.038154,70.0849231 C188.561643,70.0849231 189.035485,70.0127187 189.459692,69.8683077 C189.883899,69.7238967 190.281024,69.5253346 190.651077,69.2726154 C191.02113,69.0198962 191.368614,68.722053 191.693538,68.3790769 C192.018463,68.0361008 192.334357,67.6660533 192.641231,67.2689231 L187.577846,61.9618462 Z M191.585231,56.032 C191.585231,55.2738424 191.328002,54.6646177 190.813538,54.2043077 C190.299074,53.7439977 189.671798,53.5138462 188.931692,53.5138462 C188.11938,53.5138462 187.437951,53.7665616 186.887384,54.272 C186.336818,54.7774384 186.061538,55.4633803 186.061538,56.3298462 C186.061538,56.6547709 186.138255,56.993229 186.291692,57.3452308 C186.445129,57.6972325 186.62564,58.0266651 186.833231,58.3335385 C187.040821,58.6404118 187.257435,58.9247166 187.483077,59.1864615 C187.708719,59.4482064 187.902768,59.6422558 188.065231,59.7686154 C188.426258,59.5519989 188.814357,59.3308729 189.229538,59.1052308 C189.64472,58.8795886 190.028306,58.6223604 190.380308,58.3335385 C190.732309,58.0447165 191.021127,57.7107711 191.246769,57.3316923 C191.472411,56.9526135 191.585231,56.5193871 191.585231,56.032 Z M195.024,66.944 L199.329231,71.3846154 L196.567384,71.3846154 L193.859692,68.5686154 C193.065432,69.5975436 192.21703,70.4053304 191.314461,70.992 C190.411893,71.5786696 189.310776,71.872 188.011077,71.872 C187.216816,71.872 186.454157,71.7501551 185.723077,71.5064615 C184.991996,71.262768 184.351182,70.9062588 183.800615,70.4369231 C183.250048,69.9675874 182.812309,69.3944649 182.487384,68.7175385 C182.16246,68.040612 182,67.2689274 182,66.4024615 C182,65.698458 182.117332,65.0576439 182.352,64.48 C182.586668,63.9023561 182.907075,63.3833869 183.313231,62.9230769 C183.719386,62.4627669 184.184202,62.0521044 184.707692,61.6910769 C185.231182,61.3300495 185.781741,61.0141552 186.359384,60.7433846 C185.781741,60.129638 185.262771,59.4482089 184.802461,58.6990769 C184.342151,57.949945 184.112,57.1331326 184.112,56.2486154 C184.112,55.5265605 184.233845,54.8857464 184.477538,54.3261538 C184.721232,53.7665613 185.05969,53.2927199 185.492923,52.9046154 C185.926156,52.5165109 186.431587,52.2231805 187.009231,52.0246154 C187.586875,51.8260503 188.218663,51.7267692 188.904615,51.7267692 C189.536413,51.7267692 190.1321,51.8215375 190.691692,52.0110769 C191.251285,52.2006163 191.743177,52.4758956 192.167384,52.8369231 C192.591592,53.1979505 192.925537,53.6447153 193.169231,54.1772308 C193.412924,54.7097463 193.534769,55.3279965 193.534769,56.032 C193.534769,56.663798 193.408411,57.227895 193.155692,57.7243077 C192.902973,58.2207204 192.57354,58.671998 192.167384,59.0781538 C191.761229,59.4843097 191.305438,59.8453318 190.8,60.1612308 C190.294561,60.4771298 189.798156,60.7614346 189.310769,61.0141538 L193.724308,65.5630769 L196.350769,61.0141538 L198.544,61.0141538 L195.024,66.944 Z M232.468923,55.3821538 C231.620509,54.1366092 230.384008,53.5138462 228.759385,53.5138462 C228.253946,53.5138462 227.757541,53.5815378 227.270154,53.7169231 C226.782767,53.8523084 226.345028,54.059896 225.956923,54.3396923 C225.568819,54.6194886 225.257437,54.9805106 225.02277,55.4227692 C224.788102,55.8650279 224.67077,56.383997 224.67077,56.9796923 C224.67077,57.8461582 224.914459,58.5185617 225.401846,58.9969231 C225.889234,59.4752844 226.493945,59.8678959 227.216,60.1747692 C227.938055,60.4816426 228.727791,60.7569219 229.585231,61.0006154 C230.442671,61.2443089 231.232407,61.5692287 231.954462,61.9753846 C232.676517,62.3815405 233.281229,62.9185608 233.768616,63.5864615 C234.256003,64.2543623 234.499693,65.1659429 234.499693,66.3212308 C234.499693,67.1876966 234.314669,67.9684068 233.944616,68.6633846 C233.574563,69.3583624 233.087183,69.9405105 232.482462,70.4098462 C231.877741,70.8791818 231.200825,71.2402039 230.451693,71.4929231 C229.702561,71.7456423 228.948927,71.872 228.19077,71.872 C227.01743,71.872 225.902775,71.650874 224.84677,71.2086154 C223.790764,70.7663568 222.892722,70.0397999 222.152616,69.0289231 L223.912616,67.7563077 C224.327797,68.4603112 224.905433,69.0244081 225.645539,69.4486154 C226.385645,69.8728226 227.261123,70.0849231 228.272,70.0849231 C228.759387,70.0849231 229.246767,70.0082059 229.734154,69.8547692 C230.221541,69.7013326 230.65928,69.4756938 231.047385,69.1778462 C231.435489,68.8799985 231.755896,68.5144637 232.008616,68.0812308 C232.261335,67.6479978 232.387693,67.1515925 232.387693,66.592 C232.387693,65.9240992 232.247797,65.3690279 231.968,64.9267692 C231.688204,64.4845106 231.318156,64.114463 230.857846,63.8166154 C230.397536,63.5187677 229.874055,63.2705651 229.287385,63.072 C228.700715,62.8734349 228.096003,62.6748728 227.473231,62.4763077 C226.850459,62.2777426 226.245747,62.0521038 225.659077,61.7993846 C225.072408,61.5466654 224.548926,61.2262584 224.088616,60.8381538 C223.628306,60.4500493 223.258258,59.9626696 222.978462,59.376 C222.698666,58.7893304 222.55877,58.053748 222.55877,57.1692308 C222.55877,56.2486108 222.734768,55.4453368 223.08677,54.7593846 C223.438771,54.0734325 223.9081,53.5048228 224.49477,53.0535385 C225.081439,52.6022542 225.744817,52.2683088 226.484923,52.0516923 C227.22503,51.8350758 227.983176,51.7267692 228.759385,51.7267692 C229.842467,51.7267692 230.826252,51.8982547 231.71077,52.2412308 C232.595287,52.5842068 233.416612,53.1889187 234.17477,54.0553846 L232.468923,55.3821538 Z M257.017847,61.7993846 C257.017847,60.6982509 256.837336,59.6467742 256.476308,58.6449231 C256.115281,57.6430719 255.596312,56.7630807 254.919385,56.0049231 C254.242459,55.2467654 253.416621,54.6420535 252.441847,54.1907692 C251.467073,53.7394849 250.365955,53.5138462 249.138462,53.5138462 C247.910969,53.5138462 246.809851,53.7394849 245.835077,54.1907692 C244.860303,54.6420535 244.034465,55.2467654 243.357539,56.0049231 C242.680612,56.7630807 242.161643,57.6430719 241.800616,58.6449231 C241.439588,59.6467742 241.259077,60.6982509 241.259077,61.7993846 C241.259077,62.9005183 241.439588,63.951995 241.800616,64.9538462 C242.161643,65.9556973 242.680612,66.8356885 243.357539,67.5938462 C244.034465,68.3520038 244.860303,68.9567157 245.835077,69.408 C246.809851,69.8592843 247.910969,70.0849231 249.138462,70.0849231 C250.365955,70.0849231 251.467073,69.8592843 252.441847,69.408 C253.416621,68.9567157 254.242459,68.3520038 254.919385,67.5938462 C255.596312,66.8356885 256.115281,65.9556973 256.476308,64.9538462 C256.837336,63.951995 257.017847,62.9005183 257.017847,61.7993846 Z M259.129847,61.7993846 C259.129847,63.2615458 258.877131,64.6063528 258.371693,65.8338462 C257.866254,67.0613395 257.166774,68.1218417 256.273231,69.0153846 C255.379688,69.9089275 254.323699,70.6084077 253.105231,71.1138462 C251.886764,71.6192846 250.56452,71.872 249.138462,71.872 C247.712404,71.872 246.39016,71.6192846 245.171693,71.1138462 C243.953225,70.6084077 242.897236,69.9089275 242.003693,69.0153846 C241.11015,68.1218417 240.41067,67.0613395 239.905231,65.8338462 C239.399793,64.6063528 239.147077,63.2615458 239.147077,61.7993846 C239.147077,60.3372235 239.399793,58.9924164 239.905231,57.7649231 C240.41067,56.5374298 241.11015,55.4769275 242.003693,54.5833846 C242.897236,53.6898417 243.953225,52.9903615 245.171693,52.4849231 C246.39016,51.9794847 247.712404,51.7267692 249.138462,51.7267692 C250.56452,51.7267692 251.886764,51.9794847 253.105231,52.4849231 C254.323699,52.9903615 255.379688,53.6898417 256.273231,54.5833846 C257.166774,55.4769275 257.866254,56.5374298 258.371693,57.7649231 C258.877131,58.9924164 259.129847,60.3372235 259.129847,61.7993846 Z M266.972308,69.5975385 L275.907693,69.5975385 L275.907693,71.3846154 L265.02277,71.3846154 L265.02277,52.2141538 L266.972308,52.2141538 L266.972308,69.5975385 Z M282.504616,71.3846154 L280.555078,71.3846154 L280.555078,52.2141538 L282.504616,52.2141538 L282.504616,71.3846154 Z M305.483078,68.352 C305.158153,68.8393871 304.756516,69.2996901 304.278155,69.7329231 C303.799793,70.166156 303.253748,70.5407164 302.640001,70.8566154 C302.026254,71.1725144 301.362876,71.420717 300.649847,71.6012308 C299.936818,71.7817445 299.183184,71.872 298.388924,71.872 C296.962866,71.872 295.640622,71.6192846 294.422155,71.1138462 C293.203687,70.6084077 292.147698,69.9089275 291.254155,69.0153846 C290.360612,68.1218417 289.661132,67.0613395 289.155693,65.8338462 C288.650255,64.6063528 288.397539,63.2615458 288.397539,61.7993846 C288.397539,60.3372235 288.650255,58.9924164 289.155693,57.7649231 C289.661132,56.5374298 290.360612,55.4769275 291.254155,54.5833846 C292.147698,53.6898417 293.203687,52.9903615 294.422155,52.4849231 C295.640622,51.9794847 296.962866,51.7267692 298.388924,51.7267692 C299.580315,51.7267692 300.771687,51.9614336 301.963078,52.4307692 C303.154468,52.9001049 304.174356,53.6763023 305.02277,54.7593846 L303.316924,56.032 C303.118359,55.7251267 302.847592,55.4182579 302.504616,55.1113846 C302.16164,54.8045113 301.769029,54.5337448 301.32677,54.2990769 C300.884512,54.0644091 300.41067,53.8748725 299.905232,53.7304615 C299.399793,53.5860506 298.894362,53.5138462 298.388924,53.5138462 C297.161431,53.5138462 296.060313,53.7394849 295.085539,54.1907692 C294.110765,54.6420535 293.284927,55.2467654 292.608001,56.0049231 C291.931074,56.7630807 291.412105,57.6430719 291.051078,58.6449231 C290.69005,59.6467742 290.509539,60.6982509 290.509539,61.7993846 C290.509539,62.9005183 290.69005,63.951995 291.051078,64.9538462 C291.412105,65.9556973 291.931074,66.8356885 292.608001,67.5938462 C293.284927,68.3520038 294.110765,68.9567157 295.085539,69.408 C296.060313,69.8592843 297.161431,70.0849231 298.388924,70.0849231 C298.894362,70.0849231 299.39528,70.0397953 299.891693,69.9495385 C300.388106,69.8592816 300.875486,69.7058472 301.353847,69.4892308 C301.832208,69.2726143 302.283486,68.9792839 302.707693,68.6092308 C303.1319,68.2391776 303.524512,67.7743618 303.885539,67.2147692 L305.483078,68.352 Z M312.70277,71.3846154 L310.753232,71.3846154 L310.753232,52.2141538 L312.70277,52.2141538 L312.70277,71.3846154 Z M326.041847,71.3846154 L324.092309,71.3846154 L324.092309,54.0012308 L317.675078,54.0012308 L317.675078,52.2141538 L332.459078,52.2141538 L332.459078,54.0012308 L326.041847,54.0012308 L326.041847,71.3846154 Z M354.002463,61.7993846 C354.002463,60.6982509 353.821952,59.6467742 353.460924,58.6449231 C353.099897,57.6430719 352.580928,56.7630807 351.904001,56.0049231 C351.227075,55.2467654 350.401237,54.6420535 349.426463,54.1907692 C348.451689,53.7394849 347.350572,53.5138462 346.123078,53.5138462 C344.895585,53.5138462 343.794468,53.7394849 342.819694,54.1907692 C341.84492,54.6420535 341.019082,55.2467654 340.342155,56.0049231 C339.665229,56.7630807 339.14626,57.6430719 338.785232,58.6449231 C338.424205,59.6467742 338.243694,60.6982509 338.243694,61.7993846 C338.243694,62.9005183 338.424205,63.951995 338.785232,64.9538462 C339.14626,65.9556973 339.665229,66.8356885 340.342155,67.5938462 C341.019082,68.3520038 341.84492,68.9567157 342.819694,69.408 C343.794468,69.8592843 344.895585,70.0849231 346.123078,70.0849231 C347.350572,70.0849231 348.451689,69.8592843 349.426463,69.408 C350.401237,68.9567157 351.227075,68.3520038 351.904001,67.5938462 C352.580928,66.8356885 353.099897,65.9556973 353.460924,64.9538462 C353.821952,63.951995 354.002463,62.9005183 354.002463,61.7993846 Z M356.114463,61.7993846 C356.114463,63.2615458 355.861747,64.6063528 355.356309,65.8338462 C354.850871,67.0613395 354.15139,68.1218417 353.257848,69.0153846 C352.364305,69.9089275 351.308315,70.6084077 350.089848,71.1138462 C348.87138,71.6192846 347.549137,71.872 346.123078,71.872 C344.69702,71.872 343.374777,71.6192846 342.156309,71.1138462 C340.937841,70.6084077 339.881852,69.9089275 338.988309,69.0153846 C338.094766,68.1218417 337.395286,67.0613395 336.889848,65.8338462 C336.384409,64.6063528 336.131694,63.2615458 336.131694,61.7993846 C336.131694,60.3372235 336.384409,58.9924164 336.889848,57.7649231 C337.395286,56.5374298 338.094766,55.4769275 338.988309,54.5833846 C339.881852,53.6898417 340.937841,52.9903615 342.156309,52.4849231 C343.374777,51.9794847 344.69702,51.7267692 346.123078,51.7267692 C347.549137,51.7267692 348.87138,51.9794847 350.089848,52.4849231 C351.308315,52.9903615 352.364305,53.6898417 353.257848,54.5833846 C354.15139,55.4769275 354.850871,56.5374298 355.356309,57.7649231 C355.861747,58.9924164 356.114463,60.3372235 356.114463,61.7993846 Z M363.956925,60.6892308 L367.422771,60.6892308 C368.289237,60.6892308 369.024819,60.5989753 369.62954,60.4184615 C370.234261,60.2379478 370.717128,59.9987707 371.078155,59.7009231 C371.439183,59.4030754 371.700924,59.051079 371.863386,58.6449231 C372.025848,58.2387672 372.107078,57.801028 372.107078,57.3316923 C372.107078,56.880408 372.025848,56.4516943 371.863386,56.0455385 C371.700924,55.6393826 371.439183,55.2828733 371.078155,54.976 C370.717128,54.6691267 370.234261,54.4299496 369.62954,54.2584615 C369.024819,54.0869735 368.289237,54.0012308 367.422771,54.0012308 L363.956925,54.0012308 L363.956925,60.6892308 Z M363.956925,71.3846154 L362.007386,71.3846154 L362.007386,52.2141538 L367.910155,52.2141538 C369.859704,52.2141538 371.39856,52.6383547 372.526771,53.4867692 C373.654982,54.3351837 374.219078,55.6168119 374.219078,57.3316923 C374.219078,58.6674939 373.79939,59.7911749 372.960002,60.7027692 C372.120613,61.6143635 370.906676,62.1423583 369.318155,62.2867692 L374.841848,71.3846154 L372.459078,71.3846154 L367.206155,62.4763077 L363.956925,62.4763077 L363.956925,71.3846154 Z M389.128617,55.3821538 C388.280203,54.1366092 387.043702,53.5138462 385.419079,53.5138462 C384.91364,53.5138462 384.417235,53.5815378 383.929848,53.7169231 C383.442461,53.8523084 383.004722,54.059896 382.616617,54.3396923 C382.228513,54.6194886 381.917131,54.9805106 381.682463,55.4227692 C381.447795,55.8650279 381.330463,56.383997 381.330463,56.9796923 C381.330463,57.8461582 381.574153,58.5185617 382.06154,58.9969231 C382.548927,59.4752844 383.153639,59.8678959 383.875694,60.1747692 C384.597749,60.4816426 385.387485,60.7569219 386.244925,61.0006154 C387.102365,61.2443089 387.892101,61.5692287 388.614156,61.9753846 C389.33621,62.3815405 389.940922,62.9185608 390.428309,63.5864615 C390.915696,64.2543623 391.159386,65.1659429 391.159386,66.3212308 C391.159386,67.1876966 390.974363,67.9684068 390.604309,68.6633846 C390.234256,69.3583624 389.746876,69.9405105 389.142156,70.4098462 C388.537435,70.8791818 387.860518,71.2402039 387.111386,71.4929231 C386.362254,71.7456423 385.608621,71.872 384.850463,71.872 C383.677124,71.872 382.562468,71.650874 381.506463,71.2086154 C380.450458,70.7663568 379.552416,70.0397999 378.812309,69.0289231 L380.572309,67.7563077 C380.987491,68.4603112 381.565126,69.0244081 382.305232,69.4486154 C383.045339,69.8728226 383.920817,70.0849231 384.931694,70.0849231 C385.419081,70.0849231 385.906461,70.0082059 386.393848,69.8547692 C386.881235,69.7013326 387.318974,69.4756938 387.707079,69.1778462 C388.095183,68.8799985 388.41559,68.5144637 388.668309,68.0812308 C388.921029,67.6479978 389.047386,67.1515925 389.047386,66.592 C389.047386,65.9240992 388.90749,65.3690279 388.627694,64.9267692 C388.347898,64.4845106 387.97785,64.114463 387.51754,63.8166154 C387.05723,63.5187677 386.533748,63.2705651 385.947079,63.072 C385.360409,62.8734349 384.755697,62.6748728 384.132925,62.4763077 C383.510152,62.2777426 382.905441,62.0521038 382.318771,61.7993846 C381.732101,61.5466654 381.208619,61.2262584 380.748309,60.8381538 C380.287999,60.4500493 379.917952,59.9626696 379.638156,59.376 C379.358359,58.7893304 379.218463,58.053748 379.218463,57.1692308 C379.218463,56.2486108 379.394461,55.4453368 379.746463,54.7593846 C380.098465,54.0734325 380.567794,53.5048228 381.154463,53.0535385 C381.741133,52.6022542 382.404511,52.2683088 383.144617,52.0516923 C383.884723,51.8350758 384.64287,51.7267692 385.419079,51.7267692 C386.502161,51.7267692 387.485946,51.8982547 388.370463,52.2412308 C389.25498,52.5842068 390.076306,53.1889187 390.834463,54.0553846 L389.128617,55.3821538 Z" id="BARRISTER-&amp;-SOLICITO" fill="#7B2346"></path>
                    <path d="M24.9802297,6.42953846 C23.5919151,4.39137442 21.5685507,3.37230769 18.9100759,3.37230769 C18.0829948,3.37230769 17.2706953,3.48307582 16.4731528,3.70461538 C15.6756104,3.92615495 14.9593098,4.26584386 14.3242297,4.72369231 C13.6891496,5.18154075 13.1796163,5.77230407 12.7956143,6.496 C12.4116124,7.21969593 12.2196143,8.0689182 12.2196143,9.04369231 C12.2196143,10.4615456 12.6183796,11.5618422 13.415922,12.3446154 C14.2134645,13.1273885 15.202993,13.7698436 16.3845374,14.272 C17.5660818,14.7741564 18.8583766,15.2246134 20.2614605,15.6233846 C21.6645444,16.0221558 22.9568392,16.5538428 24.1383836,17.2184615 C25.3199279,17.8830802 26.3094565,18.7618407 27.106999,19.8547692 C27.9045414,20.9476978 28.3033066,22.4393752 28.3033066,24.3298462 C28.3033066,25.7476994 28.0005404,27.0252251 27.394999,28.1624615 C26.7894575,29.299698 25.991927,30.2523039 25.0023836,31.0203077 C24.0128402,31.7883115 22.9051589,32.3790749 21.6793066,32.7926154 C20.4534544,33.2061559 19.2202359,33.4129231 17.9796143,33.4129231 C16.0596047,33.4129231 14.235623,33.0510805 12.5076143,32.3273846 C10.7796057,31.6036887 9.31008193,30.4147775 8.09899896,28.7606154 L10.978999,26.6781538 C11.658387,27.8301596 12.6036083,28.7532273 13.8146913,29.4473846 C15.0257742,30.1415419 16.4583753,30.4886154 18.1125374,30.4886154 C18.9100799,30.4886154 19.7076104,30.3630782 20.5051528,30.112 C21.3026953,29.8609218 22.0189958,29.4916947 22.6540759,29.0043077 C23.289156,28.5169206 23.8134584,27.9187728 24.226999,27.2098462 C24.6405395,26.5009195 24.8473066,25.68862 24.8473066,24.7729231 C24.8473066,23.6799945 24.6183859,22.7716959 24.1605374,22.048 C23.702689,21.3243041 23.0971566,20.7187717 22.343922,20.2313846 C21.5906875,19.7439976 20.7340807,19.3378478 19.7740759,19.0129231 C18.8140711,18.6879984 17.8245425,18.3630785 16.8054605,18.0381538 C15.7863785,17.7132291 14.7968499,17.3440021 13.8368451,16.9304615 C12.8768403,16.516921 12.0202335,15.9926186 11.266999,15.3575385 C10.5137644,14.7224584 9.90823201,13.9249279 9.45038357,12.9649231 C8.99253513,12.0049183 8.76361434,10.801238 8.76361434,9.35384615 C8.76361434,7.84737708 9.05161146,6.53292869 9.62761434,5.41046154 C10.2036172,4.28799439 10.9716095,3.35754215 11.9316143,2.61907692 C12.8916191,1.88061169 13.9771467,1.33415562 15.1882297,0.979692308 C16.3993127,0.625228997 17.6399157,0.448 18.9100759,0.448 C20.6823924,0.448 22.2922225,0.728612578 23.7396143,1.28984615 C25.1870062,1.85107973 26.5309928,2.8406083 27.7716143,4.25846154 L24.9802297,6.42953846 Z M65.0786913,16.9304615 C65.0786913,15.1286064 64.7833096,13.4080082 64.1925374,11.7686154 C63.6017652,10.1292226 62.752543,8.68923697 61.6448451,7.44861538 C60.5371473,6.2079938 59.1857762,5.21846523 57.5906913,4.48 C55.9956064,3.74153477 54.1937782,3.37230769 52.1851528,3.37230769 C50.1765274,3.37230769 48.3746992,3.74153477 46.7796143,4.48 C45.1845295,5.21846523 43.8331583,6.2079938 42.7254605,7.44861538 C41.6177627,8.68923697 40.7685404,10.1292226 40.1777682,11.7686154 C39.586996,13.4080082 39.2916143,15.1286064 39.2916143,16.9304615 C39.2916143,18.7323167 39.586996,20.4529149 40.1777682,22.0923077 C40.7685404,23.7317005 41.6177627,25.1716861 42.7254605,26.4123077 C43.8331583,27.6529293 45.1845295,28.6424578 46.7796143,29.3809231 C48.3746992,30.1193883 50.1765274,30.4886154 52.1851528,30.4886154 C54.1937782,30.4886154 55.9956064,30.1193883 57.5906913,29.3809231 C59.1857762,28.6424578 60.5371473,27.6529293 61.6448451,26.4123077 C62.752543,25.1716861 63.6017652,23.7317005 64.1925374,22.0923077 C64.7833096,20.4529149 65.0786913,18.7323167 65.0786913,16.9304615 Z M68.5346913,16.9304615 C68.5346913,19.3230889 68.1211569,21.5236823 67.2940759,23.5323077 C66.4669948,25.5409331 65.3223909,27.2763004 63.8602297,28.7384615 C62.3980686,30.2006227 60.6700859,31.3452266 58.6762297,32.1723077 C56.6823736,32.9993888 54.5187029,33.4129231 52.1851528,33.4129231 C49.8516027,33.4129231 47.687932,32.9993888 45.6940759,32.1723077 C43.7002198,31.3452266 41.972237,30.2006227 40.5100759,28.7384615 C39.0479147,27.2763004 37.9033108,25.5409331 37.0762297,23.5323077 C36.2491487,21.5236823 35.8356143,19.3230889 35.8356143,16.9304615 C35.8356143,14.5378342 36.2491487,12.3372408 37.0762297,10.3286154 C37.9033108,8.31998996 39.0479147,6.5846227 40.5100759,5.12246154 C41.972237,3.66030038 43.7002198,2.51569644 45.6940759,1.68861538 C47.687932,0.861534326 49.8516027,0.448 52.1851528,0.448 C54.5187029,0.448 56.6823736,0.861534326 58.6762297,1.68861538 C60.6700859,2.51569644 62.3980686,3.66030038 63.8602297,5.12246154 C65.3223909,6.5846227 66.4669948,8.31998996 67.2940759,10.3286154 C68.1211569,12.3372408 68.5346913,14.5378342 68.5346913,16.9304615 Z M100.790691,27.8301538 L100.879307,27.8301538 L100.879307,1.24553846 L104.069461,1.24553846 L104.069461,32.6153846 L100.081768,32.6153846 L81.3839221,5.76492308 L81.2953067,5.76492308 L81.2953067,32.6153846 L78.1051528,32.6153846 L78.1051528,1.24553846 L82.0928451,1.24553846 L100.790691,27.8301538 Z M118.956845,32.6153846 L115.766691,32.6153846 L115.766691,1.24553846 L118.956845,1.24553846 L118.956845,32.6153846 Z M156.219614,32.6153846 L153.029461,32.6153846 L153.029461,4.16984615 L142.528537,4.16984615 L142.528537,1.24553846 L166.720537,1.24553846 L166.720537,4.16984615 L156.219614,4.16984615 L156.219614,32.6153846 Z M175.89223,21.4498462 L189.494691,21.4498462 L182.715614,4.96738462 L175.89223,21.4498462 Z M171.239922,32.6153846 L167.518076,32.6153846 L181.164845,1.24553846 L184.266384,1.24553846 L197.913153,32.6153846 L194.191307,32.6153846 L190.735307,24.3741538 L174.695922,24.3741538 L171.239922,32.6153846 Z M208.546999,29.6910769 L223.168537,29.6910769 L223.168537,32.6153846 L205.356845,32.6153846 L205.356845,1.24553846 L208.546999,1.24553846 L208.546999,29.6910769 Z M235.087307,28.096 L235.175922,28.096 L243.062691,1.24553846 L246.873153,1.24553846 L254.759922,28.096 L254.848537,28.096 L262.29223,1.24553846 L265.836845,1.24553846 L256.576537,32.6153846 L252.854691,32.6153846 L244.967922,5.76492308 L244.879307,5.76492308 L236.992537,32.6153846 L233.270691,32.6153846 L224.010384,1.24553846 L227.554999,1.24553846 L235.087307,28.096 Z M276.603614,21.4498462 L290.206076,21.4498462 L283.426999,4.96738462 L276.603614,21.4498462 Z M271.951307,32.6153846 L268.229461,32.6153846 L281.87623,1.24553846 L284.977768,1.24553846 L298.624538,32.6153846 L294.902691,32.6153846 L291.446691,24.3741538 L275.407307,24.3741538 L271.951307,32.6153846 Z M309.258384,15.1138462 L314.929768,15.1138462 C316.347622,15.1138462 317.551302,14.9661553 318.540845,14.6707692 C319.530389,14.3753831 320.320535,13.9840024 320.911307,13.4966154 C321.502079,13.0092283 321.930382,12.4332341 322.19623,11.7686154 C322.462077,11.1039967 322.594999,10.3876961 322.594999,9.61969231 C322.594999,8.88122708 322.462077,8.17969563 322.19623,7.51507692 C321.930382,6.85045822 321.502079,6.26707943 320.911307,5.76492308 C320.320535,5.26276672 319.530389,4.87138602 318.540845,4.59076923 C317.551302,4.31015244 316.347622,4.16984615 314.929768,4.16984615 L309.258384,4.16984615 L309.258384,15.1138462 Z M309.258384,32.6153846 L306.06823,32.6153846 L306.06823,1.24553846 L315.727307,1.24553846 C318.917477,1.24553846 321.435605,1.93968537 323.281768,3.328 C325.127931,4.71631463 326.050999,6.81352443 326.050999,9.61969231 C326.050999,11.8055494 325.364237,13.6443002 323.990691,15.136 C322.617146,16.6276998 320.630704,17.4916911 318.031307,17.728 L327.070076,32.6153846 L323.170999,32.6153846 L314.575307,18.0381538 L309.258384,18.0381538 L309.258384,32.6153846 Z M350.61223,31.1126154 L358.126076,31.1126154 L358.126076,32.6153846 L348.972845,32.6153846 L348.972845,16.4947692 L350.61223,16.4947692 L350.61223,31.1126154 Z M365.186999,31.1126154 L372.700845,31.1126154 L372.700845,32.6153846 L363.547614,32.6153846 L363.547614,16.4947692 L365.186999,16.4947692 L365.186999,31.1126154 Z M379.761768,23.6215385 L382.402999,23.6215385 C383.131618,23.6215385 383.750176,23.5456418 384.258691,23.3938462 C384.767207,23.2420505 385.173254,23.0409243 385.476845,22.7904615 C385.780437,22.5399987 386.000537,22.2440017 386.137153,21.9024615 C386.273769,21.5609214 386.342076,21.1928225 386.342076,20.7981538 C386.342076,20.4186648 386.273769,20.0581556 386.137153,19.7166154 C386.000537,19.3750752 385.780437,19.0752833 385.476845,18.8172308 C385.173254,18.5591782 384.767207,18.358052 384.258691,18.2138462 C383.750176,18.0696403 383.131618,17.9975385 382.402999,17.9975385 L379.761768,17.9975385 L379.761768,23.6215385 Z M378.122384,16.4947692 L382.812845,16.4947692 C384.452238,16.4947692 385.746276,16.8514836 386.694999,17.5649231 C387.643722,18.2783625 388.118076,19.3560954 388.118076,20.7981538 C388.118076,22.2402123 387.643722,23.32174 386.694999,24.0427692 C385.746276,24.7637985 384.452238,25.1243077 382.812845,25.1243077 L379.761768,25.1243077 L379.761768,32.6153846 L378.122384,32.6153846 L378.122384,16.4947692 Z" id="SONI-TALWAR-LLP" fill="#1F406D"></path>
                    <path d="M0.316942551,43.3846154 L399.66506,43.3846154" id="Line" stroke="#7B2346" stroke-linecap="square"></path>
                </g>
                <g id="logo">
                    <rect id="Rectangle-3" fill="#7B2346" x="5.75882353" y="42.9759036" width="37.6941176" height="37.7349398"></rect>
                    <rect id="Rectangle-3" fill="#7B2346" x="43.4529412" y="5.24096386" width="37.6941176" height="37.7349398"></rect>
                    <path d="M43.7147059,86.739538 L43.7147059,0.155295249" id="Line" stroke="#7B2346" stroke-linecap="square"></path>
                    <path d="M0.261764706,42.7138554 L88.7630143,42.7138554" id="Line" stroke="#7B2346" stroke-linecap="square"></path>
                    <path d="M49.018325,47.4273297 L80.8444766,47.4273297 L81.1470588,55.1502779 L79.7991924,55.1502779 C79.1390097,52.7238989 78.30004,51.144557 77.2822582,50.4122048 C76.2644765,49.6798526 74.1234992,49.313682 70.8592622,49.313682 L67.7234098,49.313682 L67.7234098,72.5712961 C67.7234098,74.3319004 68.0626653,75.4230148 68.7411864,75.8446721 C69.4197076,76.2663295 70.9050965,76.5437314 73.1973978,76.6768864 L73.1973978,77.4980044 L56.7754337,77.4980044 L56.7754337,76.6768864 C59.159427,76.5289364 60.6448159,76.2108488 61.2316451,75.722614 C61.8184742,75.2343792 62.1118843,74.0064132 62.1118843,72.038679 L62.1118843,49.313682 L58.9760319,49.313682 C55.8585022,49.313682 53.7358631,49.6761539 52.6080508,50.4011086 C51.4802386,51.1260633 50.6320999,52.7091039 50.0636092,55.1502779 L48.6882353,55.1502779 L49.018325,47.4273297 Z" id="T" fill="#1F406D"></path>
                    <path d="M10.8945332,28.1667449 C11.9795344,30.3366857 13.2523051,32.0663227 14.7128836,33.3557077 C17.2584633,35.6042695 20.419525,36.7285336 24.1961637,36.7285336 C26.2409736,36.7285336 28.0092903,36.2410904 29.5011669,35.2661895 C30.9930435,34.2912886 31.7389706,32.931165 31.7389706,31.1857778 C31.7389706,29.613357 30.9878272,28.2453714 29.4855179,27.08178 C28.5048438,26.3427422 26.4391995,25.2342021 23.288523,23.7561266 L17.8113811,21.1852314 C16.1630139,20.3990209 14.848513,19.6049603 13.8678389,18.8030257 C12.0525485,17.2777775 11.1449169,15.5953125 11.1449169,13.7555801 C11.1449169,11.3183278 12.2194692,9.28993535 14.3686061,7.67034189 C16.5177431,6.05074844 19.3658284,5.24096386 22.9129476,5.24096386 C24.3735261,5.24096386 26.1314102,5.51220238 28.1866528,6.05468757 C30.2418954,6.59717275 31.4155569,6.86841128 31.7076726,6.86841128 C32.5005581,6.86841128 33.0482668,6.72689553 33.3508152,6.44385978 C33.6533636,6.16082403 33.8880959,5.75986273 34.0550192,5.24096386 L35.3695332,5.24096386 L36.7779412,15.5245447 L35.2443414,15.5245447 C34.2010711,12.4268756 32.5266473,10.2648294 30.2210198,9.03834117 C27.9153924,7.81185293 25.6358808,7.198618 23.3824169,7.198618 C21.6297227,7.198618 20.1013546,7.58778632 18.7972666,8.36613463 C17.4931787,9.14448294 16.8411445,10.225506 16.8411445,11.6092364 C16.8411445,12.8514488 17.3419068,13.912817 18.3434463,14.7933726 C19.3449858,15.6896525 20.8994353,16.6252289 23.0068414,17.6001298 L28.6404731,20.2181974 C32.1667269,21.853515 34.6496731,23.3551544 36.0893862,24.7231605 C37.5082339,26.1068909 38.2176471,27.742184 38.2176471,29.629089 C38.2176471,32.1606865 36.9500926,34.2755608 34.4149457,35.9737753 C31.8797987,37.6719898 28.6404929,38.5210843 24.6969309,38.5210843 C22.7147173,38.5210843 20.6438567,38.2380528 18.4842871,37.6719813 C16.3247175,37.1059098 15.0884606,36.8228783 14.7754795,36.8228783 C14.0243249,36.8228783 13.5183464,36.995842 13.2575288,37.3417746 C12.9967112,37.6877072 12.8245742,38.0572205 12.7411125,38.4503258 L11.3327046,38.4503258 L9.42352941,28.1667449 L10.8945332,28.1667449 Z" id="S" fill="#1F406D"></path>
                </g>
            </g>
        </g>
    </g>
</svg>